<?xml version="1.0" encoding="UTF-8" standalone="no"?>
<!DOCTYPE svg PUBLIC "-//W3C//DTD SVG 1.1//EN" "http://www.w3.org/Graphics/SVG/1.1/DTD/svg11.dtd">
<!-- 由 Microsoft Visio, SVG Export 生成 primary-process-states.svg 页-1 -->
<svg xmlns="http://www.w3.org/2000/svg" xmlns:xlink="http://www.w3.org/1999/xlink" xmlns:ev="http://www.w3.org/2001/xml-events"
		xmlns:v="http://schemas.microsoft.com/visio/2003/SVGExtensions/" width="2.6677in" height="2.81042in"
		viewBox="0 0 192.075 202.35" xml:space="preserve" color-interpolation-filters="sRGB" class="st10">
	<v:documentProperties v:langID="2052" v:metric="true" v:viewMarkup="false"/>

	<style type="text/css">
	<![CDATA[
		.st1 {fill:#ffffff;stroke:#000000;stroke-linecap:round;stroke-linejoin:round;stroke-width:0.24}
		.st2 {fill:#000000;font-family:Microsoft YaHei UI;font-size:0.833336em}
		.st3 {marker-end:url(#mrkr5-13);stroke:#000000;stroke-linecap:round;stroke-linejoin:round;stroke-width:0.239976}
		.st4 {fill:#000000;fill-opacity:1;stroke:#000000;stroke-opacity:1;stroke-width:0.086948582161584}
		.st5 {fill:#ffffff;stroke:none;stroke-linecap:butt}
		.st6 {fill:#000000;font-family:Microsoft YaHei UI;font-size:0.666664em}
		.st7 {fill:#000000}
		.st8 {stroke:#000000;stroke-linecap:round;stroke-linejoin:round;stroke-width:0.239976}
		.st9 {fill:#ffffff;stroke:none;stroke-linecap:butt;stroke-width:7.2}
		.st10 {fill:none;fill-rule:evenodd;font-size:12px;overflow:visible;stroke-linecap:square;stroke-miterlimit:3}
	]]>
	</style>

	<defs id="Markers">
		<g id="lend5">
			<path d="M 2 1 L 0 0 L 1.98117 -0.993387 C 1.67173 -0.364515 1.67301 0.372641 1.98465 1.00043 " style="stroke:none"/>
		</g>
		<marker id="mrkr5-13" class="st4" v:arrowType="5" v:arrowSize="2" v:setback="20.1268" refX="-20.126837683768" orient="auto"
				markerUnits="strokeWidth" overflow="visible">
			<use xlink:href="#lend5" transform="scale(-11.501050105011,-11.501050105011) "/>
		</marker>
	</defs>
	<g v:mID="0" v:index="1" v:groupContext="foregroundPage">
		<title>页-1</title>
		<v:pageProperties v:drawingScale="0.0393701" v:pageScale="0.0393701" v:drawingUnits="24" v:shadowOffsetX="8.50394"
				v:shadowOffsetY="-8.50394"/>
		<v:layer v:name="连接线" v:index="0"/>
		<g id="shape5-1" v:mID="5" v:groupContext="shape" transform="translate(0.12,-168.64)">
			<title>椭圆形</title>
			<desc>新建态</desc>
			<v:userDefs>
				<v:ud v:nameU="visVersion" v:val="VT0(15):26"/>
			</v:userDefs>
			<v:textBlock v:margins="rect(4,4,4,4)" v:tabSpace="42.5197"/>
			<v:textRect cx="35.9291" cy="185.555" width="62.88" height="29.3917"/>
			<path d="M0 185.55 A35.9291 16.7953 0 1 1 71.86 185.55 A35.9291 16.7953 0 1 1 0 185.55 Z" class="st1"/>
			<text x="20.93" y="188.6" class="st2" v:langID="2052"><v:paragraph v:horizAlign="1"/><v:tabList/>新建态</text>		</g>
		<g id="shape6-4" v:mID="6" v:groupContext="shape" transform="translate(0.12,-84.3798)">
			<title>椭圆形.6</title>
			<desc>就绪态</desc>
			<v:userDefs>
				<v:ud v:nameU="visVersion" v:val="VT0(15):26"/>
			</v:userDefs>
			<v:textBlock v:margins="rect(4,4,4,4)" v:tabSpace="42.5197"/>
			<v:textRect cx="35.9291" cy="185.555" width="62.88" height="29.3917"/>
			<path d="M0 185.55 A35.9291 16.7953 0 1 1 71.86 185.55 A35.9291 16.7953 0 0 1 0 185.55 Z" class="st1"/>
			<text x="20.93" y="188.6" class="st2" v:langID="2052"><v:paragraph v:horizAlign="1"/><v:tabList/>就绪态</text>		</g>
		<g id="shape7-7" v:mID="7" v:groupContext="shape" v:layerMember="0" transform="translate(28.9625,-168.64)">
			<title>动态连接线</title>
			<desc>新建</desc>
			<v:textBlock v:margins="rect(4,4,4,4)" v:tabSpace="42.5197"/>
			<v:textRect cx="7.08661" cy="227.685" width="40" height="17.7341"/>
			<path d="M7.09 202.35 L7.09 248.19" class="st3"/>
			<rect v:rectContext="textBkgnd" x="-0.913294" y="222.82" width="15.9999" height="9.73059" class="st5"/>
			<text x="-0.91" y="230.12" class="st6" v:langID="2052"><v:paragraph v:horizAlign="1"/><v:tabList/>新建</text>		</g>
		<g id="shape8-16" v:mID="8" v:groupContext="shape" transform="translate(120.096,-84.3798)">
			<title>椭圆形.8</title>
			<desc>运行态</desc>
			<v:userDefs>
				<v:ud v:nameU="visVersion" v:val="VT0(15):26"/>
			</v:userDefs>
			<v:textBlock v:margins="rect(4,4,4,4)" v:tabSpace="42.5197"/>
			<v:textRect cx="35.9291" cy="185.555" width="62.88" height="29.3917"/>
			<path d="M0 185.55 A35.9291 16.7953 0 1 1 71.86 185.55 A35.9291 16.7953 0 1 1 0 185.55 Z" class="st1"/>
			<text x="20.93" y="188.6" class="st2" v:langID="2052"><v:paragraph v:horizAlign="1"/><v:tabList/>运行态</text>		</g>
		<g id="group10-19" transform="translate(70.4901,-96.6397)" v:mID="10" v:groupContext="group">
			<title>工作表.10</title>
			<g id="shape1-20" v:mID="1" v:groupContext="shape" transform="translate(0,-9.07087)">
				<title>单箭头</title>
				<desc>调度</desc>
				<v:userDefs>
					<v:ud v:nameU="ControlX" v:val="VT0(0.059055118110236):24"/>
					<v:ud v:nameU="Scale" v:val="VT0(1):26"/>
					<v:ud v:nameU="AntiScale" v:val="VT0(1):26"/>
					<v:ud v:nameU="visVersion" v:val="VT0(15):26"/>
				</v:userDefs>
				<v:textBlock v:margins="rect(4,4,4,4)" v:tabSpace="42.5197"/>
				<v:textRect cx="25.4341" cy="202.35" width="50.87" height="0"/>
				<path d="M46.62 200.22 L46.62 204.48 L50.87 202.35 L46.62 200.22 Z" class="st7"/>
				<path d="M46.62 200.22 L46.62 204.48 L50.87 202.35 L46.62 200.22" class="st8"/>
				<path d="M0 202.35 L46.62 202.35" class="st8"/>
				<rect v:rectContext="textBkgnd" x="17.4342" y="197.485" width="15.9999" height="9.73059" class="st9"/>
				<text x="17.43" y="204.78" class="st6" v:langID="2052"><v:paragraph v:horizAlign="1"/><v:tabList/>调度</text>			</g>
			<g id="shape2-26" v:mID="2" v:groupContext="shape" transform="translate(0.155431,-1.13687E-13)">
				<title>单箭头.2</title>
				<desc>超时</desc>
				<v:userDefs>
					<v:ud v:nameU="ControlX" v:val="VT0(0.059055118110236):24"/>
					<v:ud v:nameU="Scale" v:val="VT0(1):26"/>
					<v:ud v:nameU="AntiScale" v:val="VT0(1):26"/>
					<v:ud v:nameU="visVersion" v:val="VT0(15):26"/>
				</v:userDefs>
				<v:textBlock v:margins="rect(4,4,4,4)" v:tabSpace="42.5197"/>
				<v:textRect cx="25.4341" cy="202.35" width="50.87" height="0"/>
				<path d="M4.25 200.22 L4.25 204.48 L0 202.35 L4.25 200.22 Z" class="st7"/>
				<path d="M4.25 200.22 L4.25 204.48 L0 202.35 L4.25 200.22" class="st8"/>
				<path d="M4.25 202.35 L50.87 202.35" class="st8"/>
				<rect v:rectContext="textBkgnd" x="17.4342" y="197.485" width="15.9999" height="9.73059" class="st9"/>
				<text x="17.43" y="204.78" class="st6" v:langID="2052"><v:paragraph v:horizAlign="1"/><v:tabList/>超时</text>			</g>
		</g>
		<g id="shape11-32" v:mID="11" v:groupContext="shape" transform="translate(0.12,-0.12)">
			<title>椭圆形.11</title>
			<desc>阻塞态</desc>
			<v:userDefs>
				<v:ud v:nameU="visVersion" v:val="VT0(15):26"/>
			</v:userDefs>
			<v:textBlock v:margins="rect(4,4,4,4)" v:tabSpace="42.5197"/>
			<v:textRect cx="35.9291" cy="185.555" width="62.88" height="29.3917"/>
			<path d="M0 185.55 A35.9291 16.7953 0 1 1 71.86 185.55 A35.9291 16.7953 0 1 1 0 185.55 Z" class="st1"/>
			<text x="20.93" y="188.6" class="st2" v:langID="2052"><v:paragraph v:horizAlign="1"/><v:tabList/>阻塞态</text>		</g>
		<g id="shape13-35" v:mID="13" v:groupContext="shape" v:layerMember="0" transform="translate(43.1357,-33.7106)">
			<title>动态连接线.13</title>
			<desc>发生事件</desc>
			<v:textBlock v:margins="rect(4,4,4,4)" v:tabSpace="42.5197"/>
			<v:textRect cx="-7.08661" cy="177.016" width="42.2" height="17.7341"/>
			<path d="M-7.09 202.35 L-7.09 156.51" class="st3"/>
			<rect v:rectContext="textBkgnd" x="-23.0864" y="172.151" width="31.9999" height="9.73059" class="st9"/>
			<text x="-23.09" y="179.45" class="st6" v:langID="2052"><v:paragraph v:horizAlign="1"/><v:tabList/>发生事件</text>		</g>
		<g id="shape14-42" v:mID="14" v:groupContext="shape" v:layerMember="0" transform="translate(156.026,-84.3798)">
			<title>动态连接线.14</title>
			<desc>等待事件</desc>
			<v:textBlock v:margins="rect(4,4,4,4)" v:tabSpace="42.5197"/>
			<v:textRect cx="-42.0236" cy="236.083" width="42.2" height="17.7341"/>
			<path d="M0 202.35 L-80.28 266.79" class="st3"/>
			<rect v:rectContext="textBkgnd" x="-58.0235" y="231.218" width="31.9999" height="9.73059" class="st9"/>
			<text x="-58.02" y="238.52" class="st6" v:langID="2052"><v:paragraph v:horizAlign="1"/><v:tabList/>等待事件</text>		</g>
		<g id="shape15-49" v:mID="15" v:groupContext="shape" transform="translate(120.096,-168.64)">
			<title>椭圆形.15</title>
			<desc>运行态</desc>
			<v:userDefs>
				<v:ud v:nameU="visVersion" v:val="VT0(15):26"/>
			</v:userDefs>
			<v:textBlock v:margins="rect(4,4,4,4)" v:tabSpace="42.5197"/>
			<v:textRect cx="35.9291" cy="185.555" width="62.88" height="29.3917"/>
			<path d="M0 185.55 A35.9291 16.7953 0 1 1 71.86 185.55 A35.9291 16.7953 0 1 1 0 185.55 Z" class="st1"/>
			<text x="20.93" y="188.6" class="st2" v:langID="2052"><v:paragraph v:horizAlign="1"/><v:tabList/>运行态</text>		</g>
		<g id="shape16-52" v:mID="16" v:groupContext="shape" v:layerMember="0" transform="translate(148.939,-117.97)">
			<title>动态连接线.16</title>
			<desc>释放</desc>
			<v:textBlock v:margins="rect(4,4,4,4)" v:tabSpace="42.5197"/>
			<v:textRect cx="7.08661" cy="177.016" width="40" height="17.7341"/>
			<path d="M7.09 202.35 L7.09 156.51" class="st3"/>
			<rect v:rectContext="textBkgnd" x="-0.913294" y="172.151" width="15.9999" height="9.73059" class="st9"/>
			<text x="-0.91" y="179.45" class="st6" v:langID="2052"><v:paragraph v:horizAlign="1"/><v:tabList/>释放</text>		</g>
	</g>
</svg>
