<?xml version="1.0" encoding="UTF-8" standalone="no"?>
<!DOCTYPE svg PUBLIC "-//W3C//DTD SVG 1.1//EN" "http://www.w3.org/Graphics/SVG/1.1/DTD/svg11.dtd">
<!-- 由 Microsoft Visio, SVG Export 生成 tcp-3-way-handshake.svg 页-1 -->
<svg xmlns="http://www.w3.org/2000/svg" xmlns:xlink="http://www.w3.org/1999/xlink" xmlns:ev="http://www.w3.org/2001/xml-events"
		width="4.99829in" height="2.58498in" viewBox="0 0 359.877 186.118" xml:space="preserve" color-interpolation-filters="sRGB"
		class="st11">
	<style type="text/css">
	<![CDATA[
		.st1 {fill:#ffffff;stroke:#000000;stroke-linecap:round;stroke-linejoin:round;stroke-width:0.25}
		.st2 {stroke:#000000;stroke-dasharray:1.75,1.25;stroke-linecap:round;stroke-linejoin:round;stroke-width:0.25}
		.st3 {fill:#000000;font-family:微软雅黑;font-size:1.00001em;font-weight:bold}
		.st4 {marker-end:url(#mrkr4-32);stroke:#000000;stroke-linecap:round;stroke-linejoin:round;stroke-width:0.25}
		.st5 {fill:#000000;fill-opacity:1;stroke:#000000;stroke-opacity:1;stroke-width:0.07163323782235}
		.st6 {fill:#ffffff;stroke:none;stroke-linecap:butt;stroke-width:7.2}
		.st7 {fill:#000000;font-family:Segoe UI;font-size:0.666664em}
		.st8 {fill:none;stroke:none;stroke-linecap:round;stroke-linejoin:round;stroke-width:0.75}
		.st9 {fill:#000000;font-family:Segoe UI;font-size:1.00001em}
		.st10 {font-family:微软雅黑;font-size:1em}
		.st11 {fill:none;fill-rule:evenodd;font-size:12px;overflow:visible;stroke-linecap:square;stroke-miterlimit:3}
	]]>
	</style>

	<defs id="Markers">
		<g id="lend4">
			<path d="M 2 1 L 0 0 L 2 -1 L 2 1 " style="stroke:none"/>
		</g>
		<marker id="mrkr4-32" class="st5" refX="-27.92" orient="auto" markerUnits="strokeWidth" overflow="visible">
			<use xlink:href="#lend4" transform="scale(-13.96,-13.96) "/>
		</marker>
	</defs>
	<g>
		<title>页-1</title>
		<g id="group1-1" transform="translate(69.9357,-156.938)">
			<title>对象生命线</title>
			<desc>客户</desc>
			<g id="shape2-2" transform="translate(4.32656,2.84217E-14)">
				<title>工作表.2</title>
				<rect x="0" y="160.606" width="51.0236" height="25.5118" class="st1"/>
			</g>
			<g id="shape3-4" transform="translate(21.3344,-29.0551)">
				<title>工作表.3</title>
				<path d="M8.5 186.12 a0 0 0 1 1 0 0 a0 0 0 1 1 0 0 Z" class="st1"/>
			</g>
			<g id="shape4-6" transform="translate(19.8923,156.938)">
				<title>工作表.4</title>
			</g>
			<g id="shape5-8" transform="translate(215.957,186.118) rotate(90)">
				<title>工作表.5</title>
				<path d="M0 186.12 L139.32 186.12" class="st2"/>
			</g>
			<g id="shape1-11">
				<rect x="0" y="160.606" width="59.6768" height="25.5118" class="st1"/>
				<text x="17.84" y="176.96" class="st3">客户</text>			</g>
		</g>
		<g id="group6-14" transform="translate(208.684,-156.938)">
			<title>对象生命线.6</title>
			<desc>服务器</desc>
			<g id="shape7-15" transform="translate(4.32656,2.84217E-14)">
				<title>工作表.7</title>
				<rect x="0" y="160.606" width="51.0236" height="25.5118" class="st1"/>
			</g>
			<g id="shape8-17" transform="translate(21.3344,-29.0551)">
				<title>工作表.8</title>
				<path d="M8.5 186.12 a0 0 0 1 1 0 0 a0 0 0 1 1 0 0 Z" class="st1"/>
			</g>
			<g id="shape9-19" transform="translate(19.8923,156.938)">
				<title>工作表.9</title>
			</g>
			<g id="shape10-21" transform="translate(215.957,186.118) rotate(90)">
				<title>工作表.10</title>
				<path d="M0 186.12 L139.32 186.12" class="st2"/>
			</g>
			<g id="shape6-24">
				<rect x="0" y="160.606" width="59.6768" height="25.5118" class="st1"/>
				<text x="11.84" y="176.96" class="st3">服务器</text>			</g>
		</g>
		<g id="shape11-27" transform="translate(99.7741,-139.93)">
			<title>消息</title>
			<desc>SYN J</desc>
			<path d="M0 186.12 L131.97 218.47" class="st4"/>
			<rect x="59.672" y="188.83" width="19.7029" height="9.59985" class="st6"/>
			<text x="59.67" y="196.03" class="st7">SYN J</text>		</g>
		<g id="shape12-35" transform="translate(0.56149,-122.497)">
			<title>工作表.12</title>
			<desc>socket connect [阻塞]{主动打开}</desc>
			<rect x="0" y="154.937" width="99.2126" height="31.1811" class="st8"/>
			<text x="9.96" y="166.83" class="st9">socket connect <tspan x="5.59" dy="1.212em" class="st10">[</tspan><tspan
						class="st10">阻塞</tspan><tspan class="st10">]</tspan><tspan class="st10">{</tspan><tspan class="st10">主动打开</tspan><tspan
						class="st10">}</tspan></text>		</g>
		<g id="shape13-44" transform="translate(238.336,-125.406)">
			<title>工作表.13</title>
			<desc>socket, bind, listen {被动打开}</desc>
			<rect x="0" y="154.937" width="121.166" height="31.1811" class="st8"/>
			<text x="11.78" y="166.83" class="st9">socket, bind, listen <tspan x="32.58" dy="1.212em" class="st10">{</tspan><tspan
						class="st10">被动打开</tspan><tspan class="st10">}</tspan></text>		</g>
		<g id="shape14-50" transform="translate(238.896,-91.3161)">
			<title>工作表.14</title>
			<desc>accept[阻塞]</desc>
			<rect x="0" y="160.606" width="91.4099" height="25.5118" class="st8"/>
			<text x="12.79" y="177.01" class="st9">accept[<tspan class="st10">阻塞</tspan>]</text>		</g>
		<g id="shape15-54" transform="translate(238.523,-105.915)">
			<title>消息.15</title>
			<desc>SYN K, ACK J+1</desc>
			<path d="M0 186.12 L-131.97 218.47" class="st4"/>
			<rect x="-97.2917" y="186.279" width="54.9998" height="9.59985" class="st6"/>
			<text x="-97.29" y="193.48" class="st7">SYN K, ACK J+1</text>		</g>
		<g id="shape16-61" transform="translate(0.375,-57.3003)">
			<title>工作表.16</title>
			<desc>connect(返回)</desc>
			<rect x="0" y="154.937" width="99.2126" height="31.1811" class="st8"/>
			<text x="12.96" y="174.18" class="st9">connect(<tspan class="st10">返回</tspan>)</text>		</g>
		<g id="shape17-65" transform="translate(99.7741,-71.8988)">
			<title>消息.17</title>
			<desc>ACK K+1</desc>
			<path d="M0 186.12 L131.91 213.07" class="st4"/>
			<rect x="54.405" y="204.421" width="31.3709" height="9.59985" class="st6"/>
			<text x="54.4" y="211.62" class="st7">ACK K+1</text>		</g>
		<g id="shape18-72" transform="translate(246.9,-27.5366)">
			<title>工作表.18</title>
			<desc>accept(返回)</desc>
			<rect x="0" y="160.606" width="91.4099" height="25.5118" class="st8"/>
			<text x="12.79" y="177.01" class="st9">accept(<tspan class="st10">返回</tspan>)</text>		</g>
	</g>
</svg>
