<?xml version="1.0" encoding="UTF-8" standalone="no"?>
<!DOCTYPE svg PUBLIC "-//W3C//DTD SVG 1.1//EN" "http://www.w3.org/Graphics/SVG/1.1/DTD/svg11.dtd">
<!-- 由 Microsoft Visio, SVG Export 生成 绘图1.svg 页-1 -->
<svg xmlns="http://www.w3.org/2000/svg" xmlns:xlink="http://www.w3.org/1999/xlink" xmlns:ev="http://www.w3.org/2001/xml-events"
		width="7.51692in" height="3.86751in" viewBox="0 0 541.219 278.46" xml:space="preserve" color-interpolation-filters="sRGB"
		class="st10">
	<style type="text/css">
	<![CDATA[
		.st1 {fill:#ffffff;stroke:#000000;stroke-linecap:round;stroke-linejoin:round;stroke-width:0.24}
		.st2 {fill:#000000;font-family:Segoe UI;font-size:0.833336em}
		.st3 {stroke:#000000;stroke-dasharray:1.75,1.25;stroke-linecap:round;stroke-linejoin:round;stroke-width:0.25}
		.st4 {fill:none;stroke:none;stroke-linecap:round;stroke-linejoin:round;stroke-width:0.75}
		.st5 {fill:#000000;font-family:Segoe UI;font-size:1.00001em}
		.st6 {fill:#bfbfbf;stroke:#000000;stroke-linecap:round;stroke-linejoin:round;stroke-width:0.24}
		.st7 {stroke:#000000;stroke-linecap:round;stroke-linejoin:round;stroke-width:0.25}
		.st8 {fill:#000000;font-family:微软雅黑;font-size:0.833336em}
		.st9 {font-size:1em}
		.st10 {fill:none;fill-rule:evenodd;font-size:12px;overflow:visible;stroke-linecap:square;stroke-miterlimit:3}
	]]>
	</style>

	<g>
		<title>页-1</title>
		<g id="shape1-1" transform="translate(0.12,-243.9)">
			<title>矩形</title>
			<desc>tcpdump</desc>
			<rect x="0" y="244.02" width="62.7874" height="34.4409" class="st1"/>
			<text x="11.43" y="264.24" class="st2">tcpdump</text>		</g>
		<g id="shape2-4" transform="translate(84.1672,-243.9)">
			<title>矩形.2</title>
			<desc>mrouted</desc>
			<rect x="0" y="244.02" width="62.7874" height="34.4409" class="st1"/>
			<text x="12.34" y="264.24" class="st2">mrouted</text>		</g>
		<g id="shape3-7" transform="translate(168.214,-243.9)">
			<title>矩形.3</title>
			<desc>ping</desc>
			<rect x="0" y="244.02" width="62.7874" height="34.4409" class="st1"/>
			<text x="21.47" y="264.24" class="st2">ping</text>		</g>
		<g id="shape4-10" transform="translate(252.262,-243.9)">
			<title>矩形.4</title>
			<desc>traceroute</desc>
			<rect x="0" y="244.02" width="62.7874" height="34.4409" class="st1"/>
			<text x="8.69" y="264.24" class="st2">traceroute</text>		</g>
		<g id="shape5-13" transform="translate(336.309,-243.9)">
			<title>矩形.5</title>
			<desc>App. 1</desc>
			<rect x="0" y="244.02" width="62.7874" height="34.4409" class="st1"/>
			<text x="17.14" y="264.24" class="st2">App. 1</text>		</g>
		<g id="shape6-16" transform="translate(420.356,-243.9)">
			<title>矩形.6</title>
			<desc>App. 2</desc>
			<rect x="0" y="244.02" width="62.7874" height="34.4409" class="st1"/>
			<text x="17.14" y="264.24" class="st2">App. 2</text>		</g>
		<g id="shape8-19" transform="translate(84.7342,-228.018)">
			<title>动态连接线</title>
			<path d="M0 285.54 L430.08 285.55" class="st3"/>
		</g>
		<g id="shape9-22" transform="translate(512.497,-212.718)">
			<title>工作表.9</title>
			<desc>API</desc>
			<rect x="0" y="262.02" width="28.3465" height="16.4409" class="st4"/>
			<text x="5.35" y="273.84" class="st5">API</text>		</g>
		<g id="shape10-25" transform="translate(336.309,-162.687)">
			<title>矩形.10</title>
			<desc>TCP</desc>
			<rect x="0" y="244.02" width="62.7874" height="34.4409" class="st6"/>
			<text x="22.88" y="264.24" class="st2">TCP</text>		</g>
		<g id="shape11-28" transform="translate(420.356,-162.687)">
			<title>矩形.11</title>
			<desc>UDP</desc>
			<rect x="0" y="244.02" width="62.7874" height="34.4409" class="st6"/>
			<text x="21.65" y="264.24" class="st2">UDP</text>		</g>
		<g id="shape12-31" transform="translate(360.616,-243.9)">
			<title>动态连接线.12</title>
			<path d="M7.09 278.46 L7.09 325.23" class="st7"/>
		</g>
		<g id="shape13-34" transform="translate(444.663,-243.9)">
			<title>动态连接线.13</title>
			<path d="M7.09 278.46 L7.09 325.23" class="st7"/>
		</g>
		<g id="shape14-37" transform="translate(168.214,-143.27)">
			<title>矩形.14</title>
			<desc>ICMP</desc>
			<rect x="0" y="244.02" width="62.7874" height="34.4409" class="st1"/>
			<text x="19.68" y="264.24" class="st2">ICMP</text>		</g>
		<g id="shape15-40" transform="translate(206.695,-243.9)">
			<title>动态连接线.15</title>
			<path d="M-7.09 278.46 L-7.09 344.65" class="st7"/>
		</g>
		<g id="shape16-43" transform="translate(283.655,-243.9)">
			<title>动态连接线.16</title>
			<path d="M0 278.46 L-66.7 344.65" class="st7"/>
		</g>
		<g id="shape17-46" transform="translate(336.309,-81.4743)">
			<title>矩形.17</title>
			<desc>IP</desc>
			<rect x="0" y="244.02" width="62.7874" height="34.4409" class="st1"/>
			<text x="27.26" y="264.24" class="st2">IP</text>		</g>
		<g id="shape18-49" transform="translate(360.616,-162.687)">
			<title>动态连接线.18</title>
			<path d="M7.09 278.46 L7.09 325.23" class="st7"/>
		</g>
		<g id="shape19-52" transform="translate(451.75,-162.687)">
			<title>动态连接线.19</title>
			<path d="M0 278.46 L-61.43 325.23" class="st7"/>
		</g>
		<g id="shape20-55" transform="translate(199.608,-143.27)">
			<title>动态连接线.20</title>
			<path d="M0 278.46 L136.7 314.71" class="st7"/>
		</g>
		<g id="shape21-58" transform="translate(84.1672,-81.4743)">
			<title>矩形.21</title>
			<desc>IGMP</desc>
			<rect x="0" y="244.02" width="62.7874" height="34.4409" class="st1"/>
			<text x="19.34" y="264.24" class="st2">IGMP</text>		</g>
		<g id="shape22-61" transform="translate(122.648,-243.9)">
			<title>动态连接线.22</title>
			<path d="M-7.09 278.46 L-7.09 406.44" class="st7"/>
		</g>
		<g id="shape23-64" transform="translate(146.955,-91.6082)">
			<title>动态连接线.23</title>
			<path d="M0 271.37 L189.35 271.37" class="st7"/>
		</g>
		<g id="shape24-67" transform="translate(336.309,-0.261732)">
			<title>矩形.24</title>
			<desc>数据链路</desc>
			<rect x="0" y="244.02" width="62.7874" height="34.4409" class="st1"/>
			<text x="11.39" y="264.24" class="st8">数据链路</text>		</g>
		<g id="shape25-70" transform="translate(168.214,-21.3798)">
			<title>矩形.25</title>
			<desc>ARP RARP</desc>
			<rect x="0" y="244.02" width="62.7874" height="34.4409" class="st1"/>
			<text x="22.38" y="258.24" class="st2">ARP <tspan x="19.39" dy="1.2em" class="st9">RARP</tspan></text>		</g>
		<g id="shape26-74" transform="translate(231.002,-35.1279)">
			<title>动态连接线.26</title>
			<path d="M0 278.93 L105.31 292.16" class="st7"/>
		</g>
		<g id="shape27-77" transform="translate(0.12,-0.12)">
			<title>矩形.27</title>
			<desc>BPF DLPI</desc>
			<rect x="0" y="244.02" width="62.7874" height="34.4409" class="st1"/>
			<text x="23.29" y="258.24" class="st2">BPF <tspan x="21.4" dy="1.2em" class="st9">DLPI</tspan></text>		</g>
		<g id="shape28-81" transform="translate(24.4271,-243.9)">
			<title>动态连接线.28</title>
			<path d="M7.09 278.46 L7.09 487.8" class="st7"/>
		</g>
		<g id="shape29-84" transform="translate(62.9074,-10.3174)">
			<title>动态连接线.29</title>
			<path d="M0 271.44 L273.4 271.31" class="st7"/>
		</g>
		<g id="shape30-87" transform="translate(360.616,-81.4743)">
			<title>动态连接线.30</title>
			<path d="M7.09 278.46 L7.09 325.23" class="st7"/>
		</g>
	</g>
</svg>
